<svg width="34" height="36" viewBox="0 0 34 36" fill="none" xmlns="http://www.w3.org/2000/svg">
<circle cx="17" cy="16.5" r="16" fill="#C4C4C4"/>
<g clip-path="url(#clip0_6908_2)">
<mask id="mask0_6908_2" style="mask-type:alpha" maskUnits="userSpaceOnUse" x="1" y="0" width="32" height="33">
<circle cx="17" cy="16.5" r="16" fill="#C4C4C4"/>
</mask>
<g mask="url(#mask0_6908_2)">
<path d="M17 18.5C20.1308 18.5 22.6666 15.8823 22.6666 12.6667C22.6666 9.44379 20.1308 6.83337 17 6.83337C13.8691 6.83337 11.3333 9.44379 11.3333 12.6667C11.3333 15.8823 13.8691 18.5 17 18.5ZM17 21.4167C13.2245 21.4167 5.66663 23.3636 5.66663 27.25V30.1667L17 34L28.3333 30.1667V27.25C28.3333 23.3636 20.7754 21.4167 17 21.4167Z" fill="#FBF9FA"/>
</g>
</g>
<defs>
<clipPath id="clip0_6908_2">
<rect width="34" height="35" fill="white" transform="translate(0 1)"/>
</clipPath>
</defs>
</svg>
